<svg xmlns="http://www.w3.org/2000/svg" viewBox="0 0 1140 420" width="1140" height="420">
  <defs>
    <linearGradient id="bg" x1="0%" y1="0%" x2="100%" y2="100%">
      <stop offset="0%" style="stop-color:#eff4ff"/>
      <stop offset="100%" style="stop-color:#f0fffb"/>
    </linearGradient>
  </defs>
  <rect width="1140" height="420" fill="url(#bg)"/>
  <!-- Abstract community circles -->
  <circle cx="570" cy="210" r="120" fill="rgba(108,99,255,0.06)" stroke="rgba(108,99,255,0.15)" stroke-width="1"/>
  <circle cx="570" cy="210" r="80" fill="rgba(0,201,167,0.06)" stroke="rgba(0,201,167,0.15)" stroke-width="1"/>
  <circle cx="570" cy="210" r="40" fill="rgba(245,158,11,0.1)" stroke="rgba(245,158,11,0.25)" stroke-width="1"/>
  <!-- People icons -->
  <circle cx="360" cy="160" r="22" fill="rgba(108,99,255,0.15)"/>
  <circle cx="360" cy="148" r="10" fill="rgba(108,99,255,0.4)"/>
  <ellipse cx="360" cy="174" rx="14" ry="8" fill="rgba(108,99,255,0.25)"/>
  <circle cx="780" cy="160" r="22" fill="rgba(0,201,167,0.15)"/>
  <circle cx="780" cy="148" r="10" fill="rgba(0,201,167,0.4)"/>
  <ellipse cx="780" cy="174" rx="14" ry="8" fill="rgba(0,201,167,0.25)"/>
  <circle cx="570" cy="100" r="22" fill="rgba(245,158,11,0.15)"/>
  <circle cx="570" cy="88" r="10" fill="rgba(245,158,11,0.4)"/>
  <ellipse cx="570" cy="114" rx="14" ry="8" fill="rgba(245,158,11,0.25)"/>
  <!-- Connection lines -->
  <line x1="382" y1="168" x2="530" y2="190" stroke="rgba(108,99,255,0.2)" stroke-width="1.5" stroke-dasharray="6,4"/>
  <line x1="758" y1="168" x2="610" y2="190" stroke="rgba(0,201,167,0.2)" stroke-width="1.5" stroke-dasharray="6,4"/>
  <line x1="570" y1="122" x2="570" y2="170" stroke="rgba(245,158,11,0.2)" stroke-width="1.5" stroke-dasharray="6,4"/>
  <!-- Map pins -->
  <circle cx="200" cy="280" r="8" fill="rgba(108,99,255,0.4)"/>
  <circle cx="400" cy="320" r="6" fill="rgba(0,201,167,0.4)"/>
  <circle cx="600" cy="290" r="8" fill="rgba(245,158,11,0.4)"/>
  <circle cx="800" cy="310" r="6" fill="rgba(108,99,255,0.4)"/>
  <circle cx="950" cy="275" r="8" fill="rgba(0,201,167,0.4)"/>
</svg>
