<svg xmlns="http://www.w3.org/2000/svg" viewBox="0 0 800 400" width="800" height="400">
  <defs><linearGradient id="bg" x1="0%" y1="0%" x2="100%" y2="100%"><stop offset="0%" style="stop-color:#7a3a00"/><stop offset="100%" style="stop-color:#b45309"/></linearGradient></defs>
  <rect width="800" height="400" fill="url(#bg)"/>
  <circle cx="150" cy="250" r="70" fill="rgba(245,158,11,0.1)"/>
  <circle cx="650" cy="150" r="60" fill="rgba(0,201,167,0.1)"/>
  <rect x="220" y="220" width="40" height="80" rx="5" fill="rgba(245,158,11,0.5)"/>
  <rect x="280" y="180" width="40" height="120" rx="5" fill="rgba(245,158,11,0.65)"/>
  <rect x="340" y="140" width="40" height="160" rx="5" fill="rgba(245,158,11,0.8)"/>
  <rect x="400" y="110" width="40" height="190" rx="5" fill="rgba(245,158,11,0.9)"/>
  <rect x="460" y="150" width="40" height="150" rx="5" fill="rgba(0,201,167,0.7)"/>
  <rect x="520" y="130" width="40" height="170" rx="5" fill="rgba(0,201,167,0.8)"/>
  <rect x="580" y="100" width="40" height="200" rx="5" fill="rgba(0,201,167,0.9)"/>
  <polyline points="240,220 300,180 360,140 420,110 480,150 540,130 600,100" fill="none" stroke="rgba(255,255,255,0.6)" stroke-width="2.5"/>
  <text x="400" y="340" text-anchor="middle" font-family="Inter,sans-serif" font-size="16" font-weight="700" fill="rgba(255,255,255,0.85)">How Digital Tools Transform Small Businesses</text>
  <text x="400" y="363" text-anchor="middle" font-family="Inter,sans-serif" font-size="12" fill="rgba(255,255,255,0.5)">Orao Impact Foundation Blog</text>
</svg>
