<svg xmlns="http://www.w3.org/2000/svg" viewBox="0 0 800 500" width="800" height="500">
  <defs>
    <linearGradient id="bg2" x1="0%" y1="0%" x2="100%" y2="100%">
      <stop offset="0%" style="stop-color:#0a3d1f"/>
      <stop offset="100%" style="stop-color:#1a5c3a"/>
    </linearGradient>
    <pattern id="dots2" width="25" height="25" patternUnits="userSpaceOnUse">
      <circle cx="12.5" cy="12.5" r="1.2" fill="rgba(255,255,255,0.12)"/>
    </pattern>
  </defs>
  <rect width="800" height="500" fill="url(#bg2)"/>
  <rect width="800" height="500" fill="url(#dots2)"/>
  <!-- Decorative strip -->
  <g transform="translate(0,440)">
    <rect x="0" width="800" height="60" fill="#c25b2c" opacity="0.5"/>
    <rect x="0" width="60" height="60" fill="#f4a824" opacity="0.7"/>
    <rect x="120" width="60" height="60" fill="#0a3d1f" opacity="0.8"/>
    <rect x="240" width="60" height="60" fill="#f4a824" opacity="0.7"/>
    <rect x="360" width="60" height="60" fill="#0a3d1f" opacity="0.8"/>
    <rect x="480" width="60" height="60" fill="#f4a824" opacity="0.7"/>
    <rect x="600" width="60" height="60" fill="#0a3d1f" opacity="0.8"/>
    <rect x="720" width="60" height="60" fill="#f4a824" opacity="0.7"/>
  </g>
  <!-- Shield icon -->
  <path d="M400 100 L470 130 L470 220 Q470 280 400 310 Q330 280 330 220 L330 130 Z" fill="rgba(0,201,167,0.2)" stroke="rgba(0,201,167,0.7)" stroke-width="3"/>
  <!-- Checkmark -->
  <path d="M370 210 L390 230 L430 185" stroke="#00c9a7" stroke-width="5" fill="none" stroke-linecap="round" stroke-linejoin="round"/>
  <!-- Network nodes -->
  <circle cx="160" cy="200" r="18" fill="rgba(255,255,255,0.1)" stroke="rgba(255,255,255,0.2)" stroke-width="1.5"/>
  <circle cx="160" cy="200" r="7" fill="#f59e0b" opacity="0.8"/>
  <circle cx="240" cy="280" r="14" fill="rgba(255,255,255,0.1)" stroke="rgba(255,255,255,0.2)" stroke-width="1.5"/>
  <circle cx="240" cy="280" r="5" fill="#00c9a7" opacity="0.8"/>
  <circle cx="560" cy="180" r="18" fill="rgba(255,255,255,0.1)" stroke="rgba(255,255,255,0.2)" stroke-width="1.5"/>
  <circle cx="560" cy="180" r="7" fill="#f59e0b" opacity="0.8"/>
  <circle cx="640" cy="270" r="14" fill="rgba(255,255,255,0.1)" stroke="rgba(255,255,255,0.2)" stroke-width="1.5"/>
  <circle cx="640" cy="270" r="5" fill="#00c9a7" opacity="0.8"/>
  <!-- Connection lines -->
  <line x1="178" y1="200" x2="330" y2="200" stroke="rgba(0,201,167,0.3)" stroke-width="1.5" stroke-dasharray="5,4"/>
  <line x1="470" y1="200" x2="542" y2="180" stroke="rgba(0,201,167,0.3)" stroke-width="1.5" stroke-dasharray="5,4"/>
  <line x1="240" y1="266" x2="358" y2="238" stroke="rgba(0,201,167,0.3)" stroke-width="1.5" stroke-dasharray="5,4"/>
  <line x1="640" y1="256" x2="468" y2="250" stroke="rgba(0,201,167,0.3)" stroke-width="1.5" stroke-dasharray="5,4"/>
  <!-- Title -->
  <text x="400" y="380" text-anchor="middle" font-family="Inter,sans-serif" font-size="18" font-weight="700" fill="rgba(255,255,255,0.9)">Safe Communities Initiative</text>
  <text x="400" y="403" text-anchor="middle" font-family="Inter,sans-serif" font-size="13" fill="rgba(255,255,255,0.55)">meSafe · Community Safety · Reporting</text>
</svg>
